<svg viewBox="0 0 720 420" width="720" height="420" xmlns="http://www.w3.org/2000/svg" font-family="Helvetica, Arial, sans-serif">
<rect x="0" y="0" width="720" height="420" fill="#ffffff"/>
<defs>
<marker id="s" viewBox="0 0 10 10" refX="9" refY="5" markerWidth="7" markerHeight="7" orient="auto-start-reverse">
<path d="M0,0 L10,5 L0,10 z" fill="#333"/>
</marker>
<marker id="d" viewBox="0 0 10 10" refX="9" refY="5" markerWidth="7" markerHeight="7" orient="auto-start-reverse">
<path d="M0,0 L10,5 L0,10 z" fill="#888"/>
</marker>
</defs>

<rect x="288" y="168" width="144" height="58" fill="#eeeeee" stroke="#333" stroke-width="2"/>
<text x="360" y="194" font-size="15" font-weight="bold" text-anchor="middle" fill="#1a1a1a">Alice</text>
<text x="360" y="213" font-size="11" text-anchor="middle" fill="#444">logs a meal</text>

<rect x="292" y="22" width="136" height="44" fill="#fff" stroke="#333" stroke-width="1.4"/>
<text x="360" y="49" font-size="12.5" text-anchor="middle" fill="#1a1a1a">Signed event</text>

<rect x="516" y="118" width="168" height="44" fill="#fff" stroke="#333" stroke-width="1.4"/>
<text x="600" y="145" font-size="12.5" text-anchor="middle" fill="#1a1a1a">Marketplace contract</text>

<rect x="528" y="272" width="144" height="52" fill="#fff" stroke="#333" stroke-width="1.4"/>
<text x="600" y="294" font-size="12.5" font-weight="bold" text-anchor="middle" fill="#1a1a1a">Bob</text>
<text x="600" y="312" font-size="11" text-anchor="middle" fill="#444">queries in the TEE</text>

<rect x="292" y="344" width="136" height="52" fill="#fff" stroke="#333" stroke-width="1.8"/>
<text x="360" y="366" font-size="12.5" font-weight="bold" text-anchor="middle" fill="#1a1a1a">Ivan</text>
<text x="360" y="384" font-size="11" text-anchor="middle" fill="#444">settles</text>

<rect x="48" y="272" width="144" height="52" fill="#fff" stroke="#333" stroke-width="1.4"/>
<text x="120" y="294" font-size="12.5" font-weight="bold" text-anchor="middle" fill="#1a1a1a">Charlie</text>
<text x="120" y="312" font-size="11" text-anchor="middle" fill="#444">paid provider</text>

<line x1="360" y1="166" x2="360" y2="70" stroke="#333" stroke-width="1.5" marker-end="url(#s)"/>
<path d="M 430 44 L 600 44 L 600 114" fill="none" stroke="#333" stroke-width="1.5" marker-end="url(#s)"/>
<line x1="600" y1="162" x2="600" y2="268" stroke="#333" stroke-width="1.5" marker-end="url(#s)"/>
<path d="M 570 326 L 480 380 L 432 380" fill="none" stroke="#333" stroke-width="1.5" marker-end="url(#s)"/>
<text x="516" y="360" font-size="10.5" text-anchor="middle" fill="#777">payment</text>

<path d="M 288 380 L 240 380 L 150 326" fill="none" stroke="#333" stroke-width="1.5" marker-end="url(#s)"/>
<text x="204" y="360" font-size="10.5" text-anchor="middle" fill="#777">pays for work</text>

<line x1="360" y1="342" x2="360" y2="230" stroke="#888" stroke-width="1.6" stroke-dasharray="5 4" marker-end="url(#d)"/>
<text x="370" y="292" font-size="11" fill="#555">her share</text>

<path d="M 168 270 L 220 216 L 284 202" fill="none" stroke="#888" stroke-width="1.6" stroke-dasharray="5 4" marker-end="url(#d)"/>
<text x="196" y="232" font-size="11" fill="#555">better tool</text>
</svg>
